<svg width="32" height="32" viewBox="0 0 32 32" fill="none" xmlns="http://www.w3.org/2000/svg">
  <rect width="32" height="32" rx="8" fill="#fff"/>
  <path d="M22.5 17.5c-.1-2.1 1.7-3.1 1.8-3.2-1-1.5-2.6-1.7-3.2-1.7-1.4-.1-2.7.8-3.4.8-.7 0-1.8-.8-3-0.8-1.5 0-2.9.9-3.7 2.3-1.6 2.7-.4 6.7 1.1 8.9.7 1 1.5 2.1 2.6 2.1 1 0 1.3-.7 2.6-.7s1.5.7 2.6.7c1.1 0 1.8-1 2.5-2 .8-1.1 1.1-2.2 1.1-2.3 0-.1-2.1-.8-2.1-3.1zm-2.5-5.7c.6-.7 1-1.7.9-2.7-.9.1-2 .6-2.6 1.3-.6.6-1.1 1.6-.9 2.5 1 .1 2-.5 2.6-1.1z" fill="#000"/>
</svg>