<svg width="32" height="32" viewBox="0 0 32 32" fill="none" xmlns="http://www.w3.org/2000/svg">
  <rect width="32" height="32" rx="8" fill="#fff"/>
  <g>
    <path d="M16.318 13.818v2.727h6.409c-.259 1.364-1.545 4-6.409 4-3.864 0-7-3.182-7-7s3.136-7 7-7c2.2 0 3.682.873 4.527 1.691l3.091-3.091C21.545 3.273 19.273 2 16.318 2 9.955 2 4.636 7.318 4.636 13.682s5.318 11.682 11.682 11.682c6.545 0 10.864-4.545 10.864-10.955 0-.727-.082-1.273-.182-1.818h-10z" fill="#4285F4"/>
    <path d="M6.955 9.545l2.273 1.664C10.273 9.273 12.955 7.273 16.318 7.273c2.2 0 3.682.873 4.527 1.691l3.091-3.091C21.545 3.273 19.273 2 16.318 2c-4.364 0-8.091 2.545-9.364 6.182z" fill="#34A853"/>
    <path d="M16.318 25.364c2.955 0 5.227-.955 6.955-2.591l-3.182-2.591c-.873.591-2.045.955-3.773.955-2.955 0-5.409-1.955-6.318-4.591l-3.182 2.455C7.864 22.818 11.591 25.364 16.318 25.364z" fill="#FBBC05"/>
    <path d="M27.273 16.318c0-.545-.045-1.091-.136-1.636h-10v3.182h6.409c-.273 1.364-1.545 4-6.409 4-3.864 0-7-3.182-7-7s3.136-7 7-7c2.2 0 3.682.873 4.527 1.691l3.091-3.091C21.545 3.273 19.273 2 16.318 2 9.955 2 4.636 7.318 4.636 13.682s5.318 11.682 11.682 11.682c6.545 0 10.864-4.545 10.864-10.955z" fill="#EA4335"/>
  </g>
</svg>